<svg width="748" height="200" viewBox="0 0 748 200" fill="none" xmlns="http://www.w3.org/2000/svg">
<g clip-path="url(#clip0_1089_9376)">
<path d="M744.245 58.179C745.184 58.179 745.922 58.451 746.459 58.9948C746.996 59.5387 747.264 60.2865 747.264 61.2383V79.798C747.264 80.7498 746.996 81.4977 746.459 82.0415C745.922 82.5854 745.184 82.8573 744.245 82.8573H728.147V156.602C728.147 157.554 727.879 158.301 727.342 158.845C726.806 159.389 726.068 159.661 725.129 159.661H700.981C700.042 159.661 699.304 159.389 698.768 158.845C698.231 158.301 697.963 157.554 697.963 156.602V82.8573H681.865C680.926 82.8573 680.188 82.5854 679.651 82.0415C679.114 81.4977 678.846 80.7498 678.846 79.798V61.2383C678.846 60.2865 679.114 59.5387 679.651 58.9948C680.188 58.451 680.926 58.179 681.865 58.179H697.963V32.1905C697.963 31.2387 698.231 30.4908 698.768 29.947C699.304 29.4031 700.042 29.1311 700.981 29.1311H725.129C726.068 29.1311 726.806 29.4031 727.342 29.947C727.879 30.4908 728.147 31.2387 728.147 32.1905V58.179H744.245Z" fill="#30D9E8"/>
<path d="M674.79 107.201C674.79 111.688 674.321 114.952 673.381 116.991C672.442 118.895 670.497 119.846 667.546 119.846H607.781C609.257 125.285 612.141 129.432 616.434 132.288C620.861 135.007 626.428 136.367 633.136 136.367C636.49 136.367 639.642 135.959 642.594 135.143C645.679 134.191 648.899 132.628 652.253 130.452C652.923 129.908 653.661 129.636 654.466 129.636C655.137 129.636 655.875 130.044 656.679 130.86L667.143 141.058C667.68 141.601 667.948 142.281 667.948 143.097C667.948 143.913 667.546 144.729 666.741 145.545C661.911 150.439 656.344 154.247 650.039 156.966C643.868 159.549 637.227 160.841 630.117 160.841C620.056 160.841 611.001 158.53 602.952 153.907C595.037 149.284 588.866 143.029 584.439 135.143C580.012 127.257 577.798 118.555 577.798 109.037C577.798 99.5191 579.945 90.8171 584.237 82.9309C588.664 75.0448 594.701 68.8582 602.348 64.3712C609.995 59.7483 618.513 57.4368 627.904 57.4368C637.16 57.4368 645.344 59.6803 652.454 64.1673C659.564 68.6542 665.064 74.7048 668.954 82.3191C672.845 89.9333 674.79 98.2274 674.79 107.201ZM628.105 83.3389C622.873 83.3389 618.379 84.8345 614.623 87.8258C610.867 90.6812 608.452 94.8962 607.379 100.471H648.027C647.088 94.8962 644.807 90.6812 641.185 87.8258C637.563 84.8345 633.203 83.3389 628.105 83.3389Z" fill="#30D9E8"/>
<path d="M564.64 59.6803C565.579 59.6803 566.317 59.9522 566.854 60.4961C567.39 61.04 567.659 61.7878 567.659 62.7396V158.802C567.659 168.727 564.976 176.749 559.609 182.868C554.378 189.123 547.737 193.542 539.688 196.125C531.773 198.708 523.59 200 515.138 200C506.686 200 498.57 198.776 490.789 196.329C483.143 194.017 476.636 190.89 471.27 186.947C470.465 186.403 470.063 185.655 470.063 184.704C470.063 183.888 470.197 183.276 470.465 182.868L478.313 168.591C479.118 167.504 479.923 166.96 480.728 166.96C481.399 166.96 481.935 167.096 482.338 167.368C486.899 170.087 491.594 172.058 496.424 173.282C501.387 174.506 506.821 175.118 512.723 175.118C519.565 175.118 525.803 173.622 531.438 170.631C537.072 167.775 539.889 162.949 539.889 156.15V146.768C532.108 155.742 522.449 160.229 510.912 160.229C501.924 160.229 493.808 157.918 486.564 153.295C479.319 148.672 473.618 142.417 469.459 134.531C465.435 126.645 463.422 118.079 463.422 108.833C463.422 99.5871 465.435 91.0211 469.459 83.1349C473.618 75.2487 479.319 68.9942 486.564 64.3712C493.808 59.7483 501.924 57.4368 510.912 57.4368C521.913 57.4368 531.303 61.8558 539.084 70.6938L539.688 62.7396C539.956 60.7001 540.962 59.6803 542.706 59.6803H564.64ZM514.736 132.288C520.907 132.288 526.138 129.908 530.431 125.149C534.724 120.39 536.871 114.884 536.871 108.629C536.871 102.374 534.724 96.9357 530.431 92.3128C526.138 87.5539 520.907 85.1744 514.736 85.1744C508.43 85.1744 503.131 87.4859 498.839 92.1088C494.546 96.5958 492.399 102.103 492.399 108.629C492.399 115.292 494.479 120.934 498.637 125.557C502.93 130.044 508.296 132.288 514.736 132.288Z" fill="#30D9E8"/>
<path d="M453.306 58.179C454.245 58.179 454.983 58.451 455.519 58.9948C456.056 59.5387 456.324 60.2865 456.324 61.2383V79.798C456.324 80.7498 456.056 81.4977 455.519 82.0415C454.983 82.5854 454.245 82.8573 453.306 82.8573H437.208V156.602C437.208 157.554 436.939 158.301 436.403 158.845C435.866 159.389 435.128 159.661 434.189 159.661H410.042C409.103 159.661 408.365 159.389 407.828 158.845C407.292 158.301 407.023 157.554 407.023 156.602V82.8573H390.925C389.986 82.8573 389.248 82.5854 388.712 82.0415C388.175 81.4977 387.907 80.7498 387.907 79.798V61.2383C387.907 60.2865 388.175 59.5387 388.712 58.9948C389.248 58.451 389.986 58.179 390.925 58.179H407.023V32.1905C407.023 31.2387 407.292 30.4908 407.828 29.947C408.365 29.4031 409.103 29.1311 410.042 29.1311H434.189C435.128 29.1311 435.866 29.4031 436.403 29.947C436.939 30.4908 437.208 31.2387 437.208 32.1905V58.179H453.306Z" fill="#30D9E8"/>
<path d="M361.669 49.8365C357.108 49.8365 353.284 48.2728 350.199 45.1455C347.113 41.8823 345.57 38.0072 345.57 33.5202C345.57 28.8973 347.113 25.0222 350.199 21.8949C353.284 18.6316 357.108 17 361.669 17C366.23 17 370.053 18.6316 373.139 21.8949C376.224 25.0222 377.767 28.8973 377.767 33.5202C377.767 38.0072 376.224 41.8823 373.139 45.1455C370.053 48.2728 366.23 49.8365 361.669 49.8365ZM346.577 61.1651C346.577 60.2133 346.845 59.4655 347.382 58.9216C347.918 58.3778 348.656 58.1058 349.595 58.1058H373.742C374.681 58.1058 375.419 58.3778 375.956 58.9216C376.493 59.4655 376.761 60.2133 376.761 61.1651V156.529C376.761 157.48 376.493 158.228 375.956 158.772C375.419 159.316 374.681 159.588 373.742 159.588H349.595C348.656 159.588 347.918 159.316 347.382 158.772C346.845 158.228 346.577 157.48 346.577 156.529V61.1651Z" fill="#30D9E8"/>
<path d="M307.863 83.4887C315.375 85.5282 321.814 89.6753 327.18 95.9299C332.681 102.184 335.431 109.731 335.431 118.569C335.431 132.301 331.071 142.635 322.351 149.57C313.765 156.368 300.618 159.767 282.91 159.767H233.408C232.469 159.767 231.731 159.495 231.195 158.951C230.658 158.407 230.39 157.66 230.39 156.708V20.0593C230.39 19.1075 230.658 18.3597 231.195 17.8158C231.731 17.2719 232.469 17 233.408 17H282.709C291.563 17 299.143 18.6316 305.448 21.8949C311.887 25.1581 316.717 29.5771 319.936 35.1518C323.29 40.7265 324.967 46.9811 324.967 53.9155C324.967 60.9859 323.29 67.1725 319.936 72.4752C316.717 77.778 312.692 81.4492 307.863 83.4887ZM295.789 57.9946C295.789 49.2926 290.49 44.9416 279.892 44.9416H261.58V72.2713H279.892C284.855 72.2713 288.746 71.1156 291.563 68.8041C294.38 66.3567 295.789 62.7535 295.789 57.9946ZM284.118 131.826C290.289 131.826 295.185 130.398 298.807 127.543C302.429 124.687 304.24 120.404 304.24 114.694C304.24 109.119 302.429 105.04 298.807 102.456C295.185 99.737 290.289 98.3773 284.118 98.3773H261.58V131.826H284.118Z" fill="#30D9E8"/>
<path d="M57.86 4.28313C60.4159 1.55127 63.9956 8.01346e-08 67.7437 6.94092e-08L91.9992 0C95.0617 -8.76349e-09 96.6501 3.63996 94.5617 5.8721L46.5919 57.1432H73.1008L100.056 85.7148H46.5919L100.056 142.858H67.7437C63.9956 142.858 60.4159 141.307 57.86 138.575L3.62952 80.6122C-1.20985 75.4398 -1.20984 67.4182 3.62953 62.2458L57.86 4.28313Z" fill="#30D9E8"/>
<path d="M132.412 195.717C129.856 198.449 126.276 200 122.528 200H98.2723C95.2098 200 93.6214 196.36 95.7099 194.128L143.68 142.857H117.171L90.2159 114.285H143.68L90.2158 57.1421H122.528C126.276 57.1421 129.856 58.6934 132.412 61.4252L186.642 119.388C191.481 124.56 191.481 132.582 186.642 137.754L132.412 195.717Z" fill="#30D9E8"/>
</g>
<defs>
<clipPath id="clip0_1089_9376">
<rect width="748" height="200" fill="white"/>
</clipPath>
</defs>
</svg>
