<svg width="103" height="32" viewBox="0 0 103 32" fill="none" xmlns="http://www.w3.org/2000/svg">
    <g clip-path="url(#clip0_1120_14262)">
        <path d="M40.3717 16.0728C41.1466 15.6328 41.7673 15.0849 42.2192 14.4389C42.7342 13.7033 42.9957 12.8632 42.9957 11.9432C42.9957 10.2208 42.3519 8.87645 41.083 7.94677C39.8292 7.02788 38.1041 6.5625 35.9541 6.5625H28.1797V26.5133H36.2647C38.5291 26.5133 40.3421 25.987 41.653 24.9479C42.9742 23.9001 43.645 22.4328 43.645 20.5858C43.645 19.4615 43.3295 18.4941 42.7083 17.7111C42.1507 17.0111 41.3661 16.4605 40.3723 16.0728H40.3717ZM32.387 10.1583H35.616C36.6287 10.1583 37.3934 10.3545 37.8901 10.7407C38.3808 11.1219 38.6191 11.6229 38.6191 12.2716C38.6191 12.9203 38.3808 13.4466 37.8901 13.8295C37.3934 14.2156 36.6287 14.4119 35.616 14.4119H32.387V10.1583ZM38.466 22.2414C37.9062 22.69 37.0515 22.917 35.9261 22.917H32.387V18.0346H35.9261C37.051 18.0346 37.9068 18.2541 38.4687 18.685C39.0257 19.1148 39.2964 19.6821 39.2964 20.4214C39.2964 21.199 39.0247 21.7943 38.466 22.2419V22.2414Z" fill="#03AAC7"/>
        <path d="M49.3291 11.5938H45.0938V26.5117H49.3291V11.5938Z" fill="#03AAC7"/>
        <path d="M91.1611 13.8381C90.4908 13.04 89.6506 12.4145 88.6638 11.9782C87.678 11.5425 86.5693 11.3203 85.37 11.3203C83.9 11.3203 82.574 11.6541 81.4275 12.312C80.2784 12.9721 79.3665 13.8888 78.7162 15.0385C78.0658 16.1871 77.7363 17.5201 77.7363 18.9993C77.7363 20.4785 78.0561 21.8994 78.6865 23.0658C79.3185 24.236 80.2271 25.1538 81.3865 25.7961C82.5438 26.4346 83.9033 26.7587 85.4267 26.7587C87.2968 26.7587 88.8844 26.2884 90.1462 25.3604C91.3617 24.4674 92.1975 23.2077 92.6527 21.6309H88.3888C88.1645 22.1674 87.8485 22.6242 87.396 22.9461C86.8611 23.3258 86.1703 23.5183 85.342 23.5183C84.6237 23.5183 84.0084 23.3436 83.5128 22.9995C83.0151 22.6555 82.6349 22.147 82.3852 21.4864C82.2353 21.0938 82.1291 20.6424 82.0665 20.1404H92.7271L92.7481 20.0077C92.9385 18.8046 92.8905 17.6647 92.6036 16.6196C92.3162 15.5718 91.8309 14.6362 91.1611 13.8381ZM82.134 17.3783C82.1992 17.0747 82.2871 16.7587 82.3987 16.4707C82.6587 15.8015 83.034 15.2865 83.515 14.9425C83.9938 14.5984 84.5897 14.4248 85.2864 14.4248C86.1595 14.4248 86.8762 14.7079 87.4165 15.265C87.9288 15.7951 88.2195 16.5193 88.2815 17.3783H82.1345H82.134Z" fill="#03AAC7"/>
        <path d="M49.4181 6.5625H45.0059V10.1583H49.4181V6.5625Z" fill="#03AAC7"/>
        <path d="M72.6108 13.287C72.1098 12.6852 71.5226 12.2187 70.8604 11.8962C70.0698 11.5139 69.145 11.3203 68.1112 11.3203C66.8456 11.3203 65.711 11.6325 64.7403 12.2473C63.7708 12.8615 63.0018 13.7297 62.4555 14.826C61.9114 15.9196 61.6348 17.2036 61.6348 18.6439C61.6348 20.0843 61.9254 21.2928 62.4992 22.3939C63.074 23.4989 63.8711 24.3789 64.8676 25.0109C65.8663 25.6446 67.0052 25.966 68.2531 25.966C69.1951 25.966 70.0558 25.7621 70.8097 25.3593C71.4066 25.0406 71.9065 24.6189 72.3007 24.1039V25.7281C72.3007 26.7349 72.0359 27.5077 71.5156 28.0227C70.9936 28.5377 70.1998 28.7976 69.1558 28.7976C68.2563 28.7976 67.5488 28.5938 67.0537 28.1909C66.6488 27.8614 66.295 27.429 66.2125 26.5133H62.1293C62.167 27.7946 62.5434 28.6579 63.0746 29.4145C63.6705 30.2622 64.5085 30.925 65.5676 31.3828C66.6164 31.8352 67.8335 32.0649 69.1843 32.0649C71.4519 32.0649 73.2573 31.4949 74.5489 30.3722C75.8485 29.243 76.5074 27.6619 76.5074 25.6737V11.5943H72.6108V13.287ZM71.865 20.6257C71.5964 21.1801 71.2173 21.6147 70.7369 21.9156C70.2569 22.2165 69.6778 22.3697 69.0145 22.3697C68.0557 22.3697 67.3104 22.0434 66.7345 21.3715C66.1607 20.7034 65.8701 19.7855 65.8701 18.6434C65.8701 17.5013 66.1607 16.5834 66.7345 15.9142C67.3029 15.2515 68.0702 14.9161 69.0145 14.9161C69.9587 14.9161 70.793 15.2563 71.3797 15.9293C71.9718 16.6077 72.2721 17.5304 72.2721 18.6698C72.2721 19.4081 72.1352 20.0654 71.865 20.6252V20.6257Z" fill="#03AAC7"/>
        <path d="M103.002 15.1631V11.5954H99.9453V6.5625H95.738V11.5954H93.127V15.1631H95.738V21.0032C95.738 24.2501 96.3776 26.6363 100.364 26.5624L102.867 26.5133V23.1683H101.625C99.8531 23.1683 99.9518 22.1351 99.9518 20.2165L99.9448 15.1631H103.002H103.002Z" fill="#03AAC7"/>
        <path d="M60.6059 15.1631V11.5954H57.5488V6.5625H53.3415V11.5954H50.7305V15.1631H53.3415V21.0032C53.3415 24.2501 53.9811 26.6363 57.9678 26.5624L60.4705 26.5133V23.1683H59.2286C57.4566 23.1683 57.5553 22.1351 57.5553 20.2165L57.5483 15.1631H60.6053H60.6059Z" fill="#03AAC7"/>
        <path d="M10.5599 10.1568H16.9128L23.4119 16.6144C23.8347 17.0345 23.8369 17.7177 23.4163 18.1399L15.0815 26.5167H8.53711L10.5156 24.5932L17.78 17.3747L10.6079 10.1562" fill="#03AAC7"/>
        <path d="M13.1705 17.3605H6.81755L0.318435 10.9029C-0.104341 10.4828 -0.106498 9.79957 0.314121 9.37734L8.64886 1H15.1933L13.2147 2.92352L5.95042 10.142L13.1225 17.3605" fill="#03AAC7"/>
    </g>
    <defs>
        <clipPath id="clip0_1120_14262">
            <rect width="103" height="32" fill="white"/>
        </clipPath>
    </defs>
</svg>
